<?xml version="1.0" encoding="utf-8"?>
<!-- Generator: Adobe Illustrator 24.1.2, SVG Export Plug-In . SVG Version: 6.00 Build 0)  -->
<svg version="1.1" id="Слой_1" xmlns="http://www.w3.org/2000/svg" xmlns:xlink="http://www.w3.org/1999/xlink" x="0px" y="0px"
	 viewBox="0 0 6840 1520" style="enable-background:new 0 0 6840 1520;" xml:space="preserve">
<style type="text/css">
	.st0{display:none;}
	.st1{fill:#B6CCDB;}
	.st2{fill:#E2F1FF;}
	.st3{fill:#C3D6E2;}
	.st4{fill:#EEF7FF;}
	.st5{fill:#CADDEA;}
	.st6{fill:#D1E3F2;}
	.st7{fill:none;stroke:#387DC4;stroke-width:36;stroke-linecap:round;stroke-linejoin:round;stroke-miterlimit:10;}
	.st8{fill:none;stroke:#479EF8;stroke-width:44;stroke-linecap:round;stroke-linejoin:round;stroke-miterlimit:10;}
	.st9{enable-background:new    ;}
</style>
<g id="Слой_1_1_" class="st0">
	
		<image style="display:inline;overflow:visible;enable-background:new    ;" width="60" height="60" xlink:href="Telegram Desktop/logo.png"  transform="matrix(26.6635 0 0 26.6635 616.7128 -7.36)">
	</image>
</g>
<g id="Слой_3">
	<path class="st1" d="M766.3,1401.5C965.6,1188.2,1164.8,975,1364,761.7c-80.9-109.8-161.8-219.7-242.7-329.5
		c-114.1,0-228.2,0-342.3,0c77.6,109.8,155.2,219.7,232.8,329.5C930.1,975,848.2,1188.2,766.3,1401.5z"/>
	<path class="st2" d="M766.1,1401.5c-197.7-213.3-395.3-426.5-593-639.8C255.4,651.9,337.7,542.1,420,432.2c119.7,0,239.4,0,359.1,0
		C691.2,538.8,603.3,645.4,515.4,752C599,968.5,682.5,1185,766.1,1401.5z"/>
	<path class="st3" d="M1023.2,761.7C941.8,651.9,860.5,542,779.1,432.2h342.3L1364,761.7C1250.4,761.7,1136.8,761.7,1023.2,761.7z"
		/>
	<path class="st4" d="M517.1,761.7C598.5,651.9,679.8,542,761.2,432.2H418.9L176.2,761.7C289.8,761.7,403.5,761.7,517.1,761.7z"/>
	<path class="st5" d="M515.4,752.1c83.6,216.5,167.3,433,250.9,649.4c85.6-213.3,171.2-426.5,256.8-639.8"/>
	<path class="st6" d="M1023.2,761.7C941.8,651.9,860.5,542,779.1,432.2C691.2,538.8,603.3,645.4,515.4,752"/>
	<line class="st7" x1="528.6" y1="85.3" x2="528.6" y2="216.4"/>
	<line class="st7" x1="594.1" y1="150.9" x2="463" y2="150.9"/>
	<line class="st7" x1="1089.1" y1="27.3" x2="1089.1" y2="159.2"/>
	<line class="st7" x1="1155" y1="93.3" x2="1023.2" y2="93.3"/>
	<line class="st7" x1="1428.1" y1="329.4" x2="1428.1" y2="456.6"/>
	<line class="st7" x1="1491.7" y1="393" x2="1364.5" y2="393"/>
	<line class="st7" x1="95.5" y1="320" x2="95.5" y2="441.6"/>
	<line class="st7" x1="156.3" y1="380.8" x2="34.7" y2="380.8"/>
	<line class="st7" x1="225" y1="1202.8" x2="225" y2="1340.2"/>
	<line class="st7" x1="293.8" y1="1271.5" x2="156.3" y2="1271.5"/>
	<line class="st7" x1="1313" y1="1352.4" x2="1313" y2="1492.7"/>
	<line class="st7" x1="1383.2" y1="1422.5" x2="1242.9" y2="1422.5"/>
</g>
<g id="Слой_2_1_">
	<polyline class="st8" points="515.4,752.1 779.1,432.2 420,432.2 173.1,761.7 1180.3,761.7 	"/>
	<polyline class="st8" points="934.8,432.2 1121.3,432.2 1364,761.7 766.3,1401.5 293.8,896.5 	"/>
	<path class="st8" d="M577.1,907.8c63.1,164.6,126.2,329.2,189.2,493.7C848.2,1188.2,930,975,1011.9,761.7"/>
</g>
<g id="Слой_4">
	<g class="st9">
		<path d="M1786,806.3c0-185.1,146-336.7,346.9-336.7s345,149.7,345,336.7c0,185.1-146,336.7-346.9,336.7S1786,993.2,1786,806.3z
			 M2328.2,806.3c0-111.6-81.8-204.6-197.2-204.6s-195.3,91.1-195.3,204.6c0,111.6,81.8,204.6,197.2,204.6
			C2248.2,1010.9,2328.2,919.8,2328.2,806.3z"/>
		<path d="M2590.4,633.3h141.4v71.6c34.4-46.5,81.8-80.9,155.3-80.9c116.2,0,226.9,91.1,226.9,259.5
			c0,166.5-108.8,257.6-226.9,257.6c-75.3,0-121.8-34.4-155.3-74.4v213.9h-141.4V633.3z M2972.7,881.6
			c0-82.8-55.8-137.6-121.8-137.6s-120.9,54.9-120.9,139.5c0,82.8,54.9,137.6,120.9,137.6S2972.7,967.2,2972.7,881.6z"/>
		<path d="M3194,883.5c0-142.3,101.4-259.5,246.4-259.5c166.5,0,242.7,129.3,242.7,270.6c0,11.2-0.9,24.2-1.9,37.2h-346.9
			c14,64.2,58.6,97.6,121.8,97.6c47.4,0,81.8-14.9,120.9-51.2l80.9,71.6c-46.5,57.7-113.5,93-203.7,93
			C3304.7,1143,3194,1037.9,3194,883.5z M3545.5,843.5c-8.4-63.2-45.6-106-105.1-106c-58.6,0-96.7,41.8-107.9,106H3545.5z"/>
		<path d="M3788.3,633.3h141.4V704c32.5-41.8,74.4-80,146-80c106.9,0,169.3,70.7,169.3,185.1v322.7h-141.4V853.7
			c0-67-31.6-101.4-85.6-101.4c-53.9,0-88.3,34.4-88.3,101.4v278.1h-141.4V633.3z"/>
		<path d="M4337.9,1036.9l84.6-101.4c58.6,48.4,120,79,194.4,79c58.6,0,93.9-23.3,93.9-63.2c0-36.3-22.3-54.9-131.1-82.8
			c-131.1-33.5-215.8-69.8-215.8-200.9c0-118.1,94.9-196.2,227.8-196.2c94.9,0,175.8,29.8,241.8,82.8l-74.4,107.9
			c-57.7-40-114.4-64.2-169.3-64.2s-83.7,25.1-83.7,58.6c0,42.8,27.9,56.7,140.4,85.6c132.1,34.4,206.5,81.8,206.5,197.2
			c0,129.3-98.6,201.8-239,201.8C4515.5,1141.1,4416,1106.7,4337.9,1036.9z"/>
		<path d="M4912.6,633.3h143.2l80,302.2l93.9-304.1h121.8l94.9,305l81.8-303.2h140.4l-155.3,502.2H5386l-95.8-306l-97.6,306h-126.5
			L4912.6,633.3z"/>
		<path d="M5705.9,986.7c0-108.8,82.8-159,200.9-159c50.2,0,86.5,8.4,121.8,20.5v-8.4c0-58.6-36.3-91.1-106.9-91.1
			c-53.9,0-92.1,10.2-137.6,27l-35.3-107.9c54.9-24.2,108.8-40,193.4-40c77.2,0,133,20.5,168.3,55.8c37.2,37.2,53.9,92.1,53.9,159
			v289.2h-136.7v-53.9c-34.4,38.1-81.8,63.2-150.7,63.2C5783.1,1141.1,5705.9,1087.2,5705.9,986.7z M6030.5,956v-25.1
			c-24.2-11.2-55.8-18.6-90.2-18.6c-60.4,0-97.6,24.2-97.6,70.7c0,38.1,31.6,60.4,77.2,60.4C5985.9,1043.4,6030.5,1007.2,6030.5,956
			z"/>
		<path d="M6286.2,633.3h141.4v71.6c34.4-46.5,81.8-80.9,155.3-80.9c116.2,0,226.9,91.1,226.9,259.5
			c0,166.5-108.8,257.6-226.9,257.6c-75.3,0-121.8-34.4-155.3-74.4v213.9h-141.4V633.3z M6668.5,881.6
			c0-82.8-55.8-137.6-121.8-137.6s-120.9,54.9-120.9,139.5c0,82.8,54.9,137.6,120.9,137.6S6668.5,967.2,6668.5,881.6z"/>
	</g>
</g>
</svg>
